#!OML:ASF E:/inclinewalkrobotboard/Project1/Captureday1/Session1/subject1.ASF
:FULLY-SPECIFIED
:DEGREES
226
root 0 0 0 1.4270427484102348 -3.5403751894869044 1.88868757925864
lowerback 11.96709426512194 0.8937916862058696 -0.09594167349574645
upperback -4.434681566671812 1.1206734961960685 -0.6294164399541057
thorax -11.5544664110171 0.5147705280335266 -0.8701177563227388
lowerneck -6.095339908460989 1.6528904353859624 4.624398947249232
upperneck 18.447421265728607 3.157081736831272 -8.26974575354621
head 6.7796028496136245 1.1635284175708391 -3.189253416935381
rclavicle -1.7437179603520484E-16 -9.70470137474768E-16
rhumerus 22.226425781834884 15.949832047772249 -46.54138229843561
rradius 74.31280212607163
rwrist 27.892255379598083
rhand -34.856250447700454 -59.761025705927906
rfingers 7.12502
rthumb -8.016170184019073 -89.5735491534564
lclavicle -1.7273682356637626E-16 -9.48975581229443E-16
lhumerus 22.793174225870356 -12.795655208774905 43.632064973687065
lradius 71.32064694395706
lwrist -23.63679213113241
lhand -45.336590408855415 -73.19606699901166
lfingers 7.12502
lthumb -18.093828036685395 -43.9779862084181
rfemur -25.58516894352613 -2.1459313558214417 16.699936416292307
rtibia 54.67913150627874
rfoot -27.304016428707108 -16.456135325208056
rtoes -17.656682968216415
lfemur -21.810497952565903 1.2337969366836086 -18.17908014873564
ltibia 48.65215486899904
lfoot -23.737627869757713 -3.604825038434555
ltoes -15.427360101933033
227
root 0 0 0 1.4272031799158031 -3.540582248201117 1.8886079485968652
lowerback 11.967142576250087 0.893910845994094 -0.0957412999838877
upperback -4.434885089338494 1.1208444915029168 -0.6295037992477724
thorax -11.554708972675712 0.5148497980114838 -0.8703502706037035
lowerneck -6.094965031973187 1.6530384950481374 4.624672175985768
upperneck 18.447381081132132 3.1573209348590763 -8.270056179077661
head 6.779525935849798 1.1636286703772982 -3.189372423067355
rclavicle -1.743303965617207E-16 -9.704575186036153E-16
rhumerus 22.2275978114886 15.950594500344772 -46.54068995667663
rradius 74.31389964553998
rwrist 27.8927853975043
rhand -34.856641342034116 -59.76288241112224
rfingers 7.12502
rthumb -8.016556048135872 -89.57537463287017
lclavicle -1.7277069734643123E-16 -9.490068676665058E-16
lhumerus 22.791683920195883 -12.795278118258368 43.63309474584952
lradius 71.31947486633312
lwrist -23.636012316882702
lhand -45.33608859071778 -73.1934745397916
lfingers 7.12502
lthumb -18.09336233635951 -43.975495473729595
rfemur -25.591590412788094 -2.1489904459172626 16.695396947347877
rtibia 54.68625762170024
rfoot -27.311954044037638 -16.460463454405726
rtoes -17.665761623766844
lfemur -21.80366453897694 1.232066296658296 -18.18037131055967
ltibia 48.64238233955201
lfoot -23.73020598292962 -3.6042133459852974
ltoes -15.42150098807468
228
root 0 0 0 1.427229779907789 -3.540224841446921 1.8891972396476542
lowerback 11.967149599332405 0.8937003734086932 -0.0963331284213127
upperback -4.434897979773243 1.120492652629823 -0.6295405700972422
thorax -11.554762488545427 0.5146930976062274 -0.8700050351428928
lowerneck -6.094835561204261 1.6531472680921488 4.624681444788203
upperneck 18.44734978711818 3.1574517356956906 -8.270186175496246
head 6.779483204336602 1.1636833651451552 -3.189386712193765
rclavicle -1.7432443670129503E-16 -9.704547593125296E-16
rhumerus 22.227498592532925 15.950526461578354 -46.54075157541216
rradius 74.31381209467301
rwrist 27.892739027549986
rhand -34.856609205861645 -59.762726075519744
rfingers 7.12502
rthumb -8.016526522672995 -89.5752089804343
lclavicle -1.72786933656112E-16 -9.490212044796156E-16
lhumerus 22.79056594908145 -12.794998456342384 43.633867729351195
lradius 71.31859652727177
lwrist -23.635429410639308
lhand -45.33571293203819 -73.19154072892896
lfingers 7.12502
lthumb -18.09300781227539 -43.973581759963224
rfemur -25.597994612162758 -2.1520257277577084 16.690885879649358
rtibia 54.69330738117906
rfoot -27.319825377753546 -16.464767564811503
rtoes -17.674741339129774
lfemur -21.79801213115503 1.230657137386396 -18.181441581647583
ltibia 48.6344373946416
lfoot -23.72412043010316 -3.603752141054924
ltoes -15.416735697264192
229
root 0 0 0 1.4271696565213534 -3.539471151238202 1.8902624702276178
lowerback 11.967129222709424 0.8932582793256107 -0.0974871780237756
upperback -4.434786263104888 1.1197715264259234 -0.629545232413505
thorax -11.554694589719876 0.5143701361215383 -0.8692546031343457
lowerneck -6.094860557405085 1.6532356681908718 4.62451490617057
upperneck 18.447320279042824 3.157519251545818 -8.270203007352201
head 6.779459623713374 1.1637111791427133 -3.1893325316319974
rclavicle -1.7433386565523483E-16 -9.70456622006402E-16
rhumerus 22.226802599803335 15.950061381446341 -46.54117021549713
rradius 74.31316761376114
rwrist 27.892424307982864
rhand -34.856379507138755 -59.76162637221836
rfingers 7.12502
rthumb -8.016303467386086 -89.57411535076713
lclavicle -1.7279248749865488E-16 -9.490307353646263E-16
lhumerus 22.790195522728123 -12.794906118303636 43.634122903972155
lradius 71.31830510004544
lwrist -23.635237165989675
lhand -45.3355889306483 -73.19090400976908
lfingers 7.12502
lthumb -18.092890580817112 -43.97294507476745
rfemur -25.603475079135563 -2.1546122461711352 16.687035841870582
rtibia 54.699301911598326
rfoot -27.326531373345567 -16.4684404624728
rtoes -17.682395245532547
lfemur -21.793620395782465 1.229588313841472 -18.182280415170776
ltibia 48.62841990149694
lfoot -23.719437314435986 -3.603460185370479
ltoes -15.413137273079986
230
root 0 0 0 1.4270528689504878 -3.538502014012753 1.8915712384676213
lowerback 11.967091053456102 0.8926903072576353 -0.09893893583334867
upperback -4.434595444823622 1.118851353958982 -0.6295260931771819
thorax -11.554545699481523 0.5139573445434471 -0.868282084025391
lowerneck -6.09499393461659 1.6533011168625003 4.624236964605289
upperneck 18.447294604143746 3.15753466719142 -8.270136932446473
head 6.779451899926601 1.163717134063472 -3.1892341823792707
rclavicle -1.7435095028506193E-16 -9.704611053550911E-16
rhumerus 22.22585455531835 15.949428638146744 -46.54173713103579
rradius 74.31228796816845
rwrist 27.891997923522393
rhand -34.85606624091437 -59.760132217554016
rfingers 7.12502
rthumb -8.015998573834173 -89.57263365583395
lclavicle -1.7278762728200675E-16 -9.490351691082782E-16
lhumerus 22.790551451300725 -12.794995030713787 43.633874556070374
lradius 71.31858282116103
lwrist -23.635424549253454
lhand -45.33570936424232 -73.19152584167632
lfingers 7.12502
lthumb -18.093004577762514 -43.97355248256193
rfemur -25.60745112116401 -2.1564774662967494 16.684252601717947
rtibia 54.70361076007461
rfoot -27.331368418889397 -16.471095796317037
rtoes -17.687920734274233
lfemur -21.79066764745099 1.2288954969686514 -18.182846962733127
ltibia 48.62453342736845
lfoot -23.71632265857766 -3.603332900519128
ltoes -15.410819340956117
231
root 0 0 0 1.426908978050335 -3.5374966572468036 1.8928937971602233
lowerback 11.96704456264558 0.892101380772633 -0.1004264283648254
upperback -4.434370350944832 1.1179008741207042 -0.6294917890122055
thorax -11.554355792766698 0.5135305466848572 -0.8672688306191797
lowerneck -6.095190671737438 1.6533412479708571 4.623911887605688
upperneck 18.447275048565533 3.1575095057245135 -8.270017776407405
head 6.779456925244358 1.1637061546019916 -3.1891156394577638
rclavicle -1.743706111034506E-16 -9.70466916304407E-16
rhumerus 22.224861759718145 15.948766178690098 -46.54232875439312
rradius 74.31136584521101
rwrist 27.89155280247314
rhand -34.85573799870412 -59.75856993806277
rfingers 7.12502
rthumb -8.015678800362915 -89.57108659416397
lclavicle -1.7277564118651017E-16 -9.490354899524391E-16
lhumerus 22.79140650857256 -12.79520855114871 43.63328008917303
lradius 71.3192521098814
lwrist -23.635872809355025
lhand -45.3359978332378 -73.19301209097816
lfingers 7.12502
lthumb -18.09327755720429 -43.975015103409916
rfemur -25.60976903746839 -2.1575531756628035 16.682640466715842
rtibia 54.706081750561374
rfoot -27.33415660825165 -16.47263311986211
rtoes -17.691112107945703
lfemur -21.789127150880944 1.228562018601772 -18.183144232289955
ltibia 48.622680404355904
lfoot -23.714731149129666 -3.603342546464523
ltoes -15.409719600588478
232
root 0 0 0 1.426762482798562 -3.536589347410079 1.8940617033308638
lowerback 11.96699756876268 0.8915700872196628 -0.10175530880653771
upperback -4.4341473830389075 1.1170460776093953 -0.629450279894248
thorax -11.55415850947469 0.5131464101161922 -0.8663511893226631
lowerneck -6.095410904453992 1.6533571684862018 4.6235916620187485
upperneck 18.44726258997866 3.1574566995004454 -8.269873252538389
head 6.779471004088756 1.163683704887931 -3.1889965991063254
rclavicle -1.743894346075709E-16 -9.704728735295537E-16
rhumerus 22.223965961548764 15.948168408742744 -46.5428608849685
rradius 74.31053315007347
rwrist 27.89115233966153
rhand -34.85544168682288 -59.75716230382774
rfingers 7.12502
rthumb -8.015389933843206 -89.56969417516392
lclavicle -1.7275986205848949E-16 -9.490327690687709E-16
lhumerus 22.792525273248447 -12.79548787537388 43.632502935509166
lradius 71.32012841750534
lwrist -23.636458775300863
lhand -45.33637502041823 -73.1949543938431
lfingers 7.12502
lthumb -18.093634473608105 -43.976930081961
rfemur -25.610523358914026 -2.157888144093393 16.682129574198704
rtibia 54.706833378089456
rfoot -27.33502086298069 -16.473118729275186
rtoes -17.692110569024106
lfemur -21.788828773572185 1.2285374604168637 -18.183203499680467
ltibia 48.62257231259614
lfoot -23.714468589280443 -3.603454035682535
ltoes -15.409662797202488
233
root 0 0 0 1.4266322152853506 -3.5358691558641127 1.8949671661156564
lowerback 11.966956033579162 0.891148531832702 -0.10279872874887463
upperback -4.433953741091099 1.1163700834881056 -0.629408469753452
thorax -11.553980154085627 0.5128423675827474 -0.8656201067472292
lowerneck -6.0956215881156135 1.6533527436642583 4.623314929652094
upperneck 18.447257077543842 3.1573894861111174 -8.269727441117432
head 6.779490212424509 1.1636553391743596 -3.1888919810174503
rclavicle -1.7440519110796292E-16 -9.704781800911382E-16
rhumerus 22.22325622714291 15.947694734510629 -46.543280977625116
rradius 74.30987285921279
rwrist 27.89083609702596
rhand -34.855206801744714 -59.75604887124681
rfingers 7.12502
rthumb -8.015160793691251 -89.56859397202167
lclavicle -1.7274322164872667E-16 -9.490281091201218E-16
lhumerus 22.79369960871615 -12.795781033688325 43.63168757497958
lradius 71.32104856785475
lwrist -23.63707354056865
lhand -45.336770794308066 -73.1969918268207
lfingers 7.12502
lthumb -18.09400897790847 -43.9789409746449
rfemur -25.60999304873149 -2.157617424801825 16.682520938388603
rtibia 54.70618276378028
rfoot -27.334311708544412 -16.472742692621484
rtoes -17.69131431676704
lfemur -21.78949981416509 1.2287478394070632 -18.183076381809187
ltibia 48.62378796981291
lfoot -23.715235041315943 -3.603628510923404
ltoes -15.410395535280045
